<svg xmlns="http://www.w3.org/2000/svg" width="734" height="252.864" viewBox="0 0 734 252.864">
  <g id="shopee-logo" transform="translate(336 919.648)">
    <g id="g857" transform="translate(-337 -1115)">
      <g id="g867" transform="translate(-18 116)">
        <path id="path4" d="M125,79.367c-.628-.007-1.381-.028-2,0-22.2,1.1-44.1,24.9-45,68H26a6.835,6.835,0,0,0-7,7l10,145c0,4,10.1,23.1,27,23H196c24.5-3.8,28-25,28-29l8-139a6.9,6.9,0,0,0-7-7H174C168.381,97.379,144.456,79.6,125,79.367Zm0,12c14.073.237,31.156,15.022,36,56H90c.8-35.2,17.9-55.2,34-56C124.447,91.345,124.546,91.359,125,91.367Zm1,80c10.7-.126,21.363,3.35,28,11,5.1,5.8-3.9,14.9-9,9-9.5-10.9-31.4-9.2-40,2-12.2,16.1,6.2,24.1,19,28,17.6,5.3,36.8,14.9,40,35,2.6,16.3-10.4,32-26,35-16.7,3.2-38.3-2.5-50-15-5.3-5.7,3.7-14.7,9-9,7.9,8.5,21.6,12.3,33,12,14.6-.3,28.2-13.2,20-28-11.4-20.5-40.5-14.9-55-31-11.7-13-5.8-32.9,8-42A44.3,44.3,0,0,1,126,171.367Z" fill="#fff"/>
        <g id="g22" transform="translate(-30)">
          <path id="path10" d="M361,185.367c-11.8-13.4-36.6-14.4-51-5-13.8,9-19.7,29.1-8,42,14.5,16,42.5,10.7,54,31,8.3,14.7-4.5,27.7-19,28-11.4.3-25.1-3.6-33-12-5.3-5.6-14.3,2.4-9,8,11.7,12.4,33.4,18.2,50,15,15.6-3,28.6-17.9,26-34-3.2-20-23.4-29.7-41-35-12.8-3.8-30.2-12.1-18-28,8.6-11.2,30.4-12.8,40-2C357.1,199.267,366.1,191.167,361,185.367Z" fill="#fff"/>
          <path id="path12" d="M445,245.367v42c0,7.9-12,7.9-12,0v-41a15.238,15.238,0,0,0-7-12c-8.6-3.8-23.7-2.1-33,10v43c0,7.9-12,7.9-12,0v-107c0-7.9,12-7.9,12,0v48c14.8-10.2,33.2-9.2,42-3C434.9,225.267,445.2,231.167,445,245.367Z" fill="#fff"/>
          <path id="path14" d="M703,257.367c-.3-16.5-8.5-31.7-26-35-15-2.8-32.6,5.9-39,20-6.7,14.6-4.2,34.8,9,45,14.2,11,36.4,7.1,51-1,6.8-3.8.8-13.8-6-10-9.2,5.2-21.7,7.4-32,4-7.7-2.6-11.7-9.6-13-17h50C700.2,263.167,703.1,260.667,703,257.367Zm-56-6c.1-.5-.1-.6,0-1,2.9-9.8,13-15.7,23-16,11.5-.3,18,7.5,20,17Z" fill="#fff"/>
          <path id="path16" d="M783,257.367c-.3-16.5-8.5-31.7-26-35-15-2.8-32.6,5.9-39,20-6.7,14.6-4.2,33.8,9,44,14.2,11,36.4,8.1,51,0,6.8-3.8.8-13.8-6-10-9.2,5.2-21.7,7.4-32,4-7.7-2.6-11.7-9.6-13-17h50A6.223,6.223,0,0,0,783,257.367Zm-56-6c.1-.5.9-.6,1-1,2.9-9.8,12-15.7,22-16,11.5-.3,18,7.5,20,17Z" fill="#fff"/>
          <path id="path18" d="M495,293.367a34.537,34.537,0,0,1-35-35c0-19.7,15.3-36,35-36a36.236,36.236,0,0,1,36,36C531,278.167,514.7,293.367,495,293.367Zm0-58a23,23,0,1,0,23,23A23.133,23.133,0,0,0,495,235.367Z" fill="#fff"/>
          <path id="path20" d="M584,222.367a36.459,36.459,0,0,0-27,12v-9c0-7.7-12-7.8-12,0v101c0,7.8,12,7.8,12,0v-45a36.261,36.261,0,0,0,27,12c19.7,0,36-15.2,36-35A36.236,36.236,0,0,0,584,222.367Zm0,59a23.133,23.133,0,0,1-23-23c0-11.3,8.1-21.2,19-23h1a15.028,15.028,0,0,1,3,0c9.3,0,17.5,4.9,21,13v1a22.752,22.752,0,0,1,2,9A23.068,23.068,0,0,1,584,281.367Z" fill="#fff"/>
        </g>
      </g>
    </g>
  </g>
</svg>
